<?xml version="1.0" standalone="no"?>
<!DOCTYPE svg PUBLIC "-//W3C//DTD SVG 1.1//EN" "http://www.w3.org/Graphics/SVG/1.1/DTD/svg11.dtd" >
<svg>
<metadata>
Created by FontForge 20090914 at Mon Jan 21 11:23:17 2019
 By www-data
Visit http://ttf.eosnet.com/ for more original fonts like this.
</metadata>
<defs>
<font id="Comicate" horiz-adv-x="694" >
  <font-face 
    font-family="Comicate"
    font-weight="700"
    font-stretch="normal"
    units-per-em="1000"
    panose-1="0 0 0 0 0 0 0 0 0 0"
    ascent="800"
    descent="-200"
    x-height="438.001"
    cap-height="731"
    bbox="-16.6898 -209.443 866 825"
    underline-thickness="20"
    underline-position="-90"
    unicode-range="U+0020-U+00A3"
  />
<missing-glyph horiz-adv-x="500" 
d="M63 0v800h375v-800h-375zM125 63h250v675h-250v-675z" />
    <glyph glyph-name=".notdef" horiz-adv-x="500" 
d="M63 0v800h375v-800h-375zM125 63h250v675h-250v-675z" />
    <glyph glyph-name="space" unicode=" " horiz-adv-x="270" 
 />
    <glyph glyph-name="exclam" unicode="!" horiz-adv-x="319" 
d="M87 738l140.999 -13l27 -27l-7 -161l-33 -208c-9.33301 -49.333 -0.333008 -92 27 -128c8.66699 -71.333 -9.33301 -116 -54 -134c-89.333 -13.333 -140.666 9 -153.999 67v81l26 87l14 201c-13.333 4.66699 -20 69.667 -20 195zM127.999 322
c26.667 -4.66699 44.333 8.66699 53 40l34 235c8.66699 49.333 -9.33301 83 -54 101c-26.667 4.66699 -49 -11 -67 -47c8.66699 -54 8.66699 -136.667 0 -248c8.66699 -49.333 20 -76.333 34 -81zM133.998 107.001l33.999 7l27 34c0 40 -11.333 64.333 -34 73
c-31.333 9.33301 -58 -1.66699 -80 -33c-9.33301 -22.667 8.33398 -49.667 53.001 -81z" />
    <glyph glyph-name="quotedbl" unicode="&#x22;" horiz-adv-x="306" 
d="M60 691h195l34 -33c-9.33301 -120.667 -9.33301 -185.667 0 -195l-34 -33h-195l-33 33c8.66699 13.333 8.66699 78.333 0 195zM74 490c22 -4.66699 37.667 2 47 20c4.66699 71.333 0 111.666 -14 120.999c-22 8.66699 -39.667 -2.66602 -53 -33.999
c-4.66699 -49.333 2 -85 20 -107zM208 490c22.667 -8.66699 40.6689 2.33301 54.002 33c4 49.333 -2.66699 85.333 -20 108c-22.667 4.66699 -38.334 -2 -47.001 -20c-4.66699 -72 -0.333984 -112.333 12.999 -121z" />
    <glyph glyph-name="dollar" unicode="$" horiz-adv-x="552" 
d="M228 678c58 4.66699 95.999 -2 113.999 -20l41 -34c58 -13.333 98 -47 120 -101v-40c-22 -22 -28.667 -46.667 -20 -74c58 -58 71.333 -136.333 40 -235c-17.333 -44.667 -73 -73.667 -167 -87c-27.333 -53.333 -47.666 -80 -60.999 -80
c-58 -4.66699 -89.333 -0.333984 -94 12.999c-13.333 40.667 -29 65.334 -47 74.001c-53.333 18 -89 38 -107 60l-27 61l7 47l27 33l6 34c-44 44.667 -52.667 125 -26 241l53 41l81 27zM86.999 228c-4 -31.333 0.666016 -47.0039 13.999 -47.0039
c80 -35.333 118 -57.666 114 -66.999l27 -60l40 6l40 68c94 17.333 152.333 55.333 175 114c8.66699 44.667 -0.333008 80.334 -27 107.001l-54 40l-94 20c-36 27.333 -47 50 -33 68c-9.33301 26.667 -0.666016 44.334 26.001 53.001l94 -33
c4.66699 -4.66699 13.667 2 27 20l-33 47c-58.667 18 -99 40.333 -121 67l-47 -7l-40 -33c-72 -9.33301 -119 -47.333 -141 -114l20 -81l54 -54c58 -13.333 91.333 -31 100 -53c9.33301 -49.333 -1.66699 -80.666 -33 -93.999l-81 47zM173.998 529.996
c27.333 0 45.333 -11 54 -33c9.33301 -36 -1.66699 -63 -33 -81c-27.333 0 -45.333 11.333 -54 34c-8.66699 35.333 2.33301 62 33 80zM328.998 308.996c40 0 62.333 -11.333 67 -34c8.66699 -36 -2.66602 -62.667 -33.999 -80c-40 0 -62.333 11 -67 33
c-8.66699 36 2.66602 63 33.999 81z" />
    <glyph glyph-name="ampersand" unicode="&#x26;" horiz-adv-x="596" 
d="M208 738c107.333 4.66699 170.001 0.333984 188.001 -12.999c40 -22.667 64.667 -54 74 -94l-7 -161l7 -14c31.333 -4 56 -19.667 74 -47l-14 -167l47 -88l-7 -26l-26 -21l-188 -13l-47 -13c-85.333 -4.66699 -150.333 2 -195 20
c-53.333 31.333 -82.333 73.666 -87 126.999c-9.33301 112 10.667 186 60 222c-8.66699 107.333 -6.33398 178.666 6.99902 213.999c26.667 40.667 64.667 65.334 114 74.001zM235.001 114c18 -4.66699 55.999 8.66699 113.999 40l121 -13l27 27v27l-27 60l33 114l-33 34
l-34 -14l-27 -47c-26.667 -18 -53.334 0 -80.001 54l7 47l67 60c58 80.667 24.333 148 -101 202c-85.333 -4.66699 -145.666 -38.334 -180.999 -101.001c-13.333 -31.333 2.33398 -73.666 47.001 -126.999l-7 -54c-40 -18 -71.333 -54 -94 -108
c-8.66699 -107.333 47.333 -174.333 168 -201zM268 631.001c54 0 81 -11.333 81 -34c4.66699 -62.667 -8.66602 -96 -39.999 -100c-44.667 0 -69.334 11 -74.001 33c-9.33301 54 1.66699 87.667 33 101zM228 376.001c49.333 0 89.666 -36.001 120.999 -108.001
c8.66699 -17.333 -2.66602 -35 -33.999 -53c-76 -9.33301 -116 1.66699 -120 33c-9.33301 80.667 1.66699 123.334 33 128.001z" />
    <glyph glyph-name="quotesingle" unicode="'" horiz-adv-x="226" 
d="M74 678c49.333 8.66699 80.666 -2.66504 93.999 -33.998c-9.33301 -120.667 -9.33301 -185.334 0 -194.001l-34 -34c-49.333 -8.66699 -80.666 2.66602 -93.999 33.999c9.33301 13.333 9.33301 78 0 194zM87 477.001c22.667 -9.33301 40.667 1.66699 54 33
c4.66699 49.333 -2 85 -20 107c-22.667 9.33301 -40.667 -1.66699 -54 -33c-4.66699 -49.333 2 -85 20 -107z" />
    <glyph glyph-name="parenleft" unicode="(" horiz-adv-x="267" 
d="M154 785c36 -8.66699 54 -19.668 54 -33.001l-60 -336c-9.33301 0 10.667 -129.667 60 -389c-8.66699 -26.667 -20 -42.334 -34 -47.001c-62 -13.333 -113.333 89.667 -154 309c9.33301 62.667 9.33301 125.334 0 188.001c26.667 124.667 55.667 216.334 87 275.001z
M107 173.999l21 0.000976562c4 27.333 -3 92.333 -21 195l-6 134l6 7c-17.333 4.66699 -28.333 -2 -33 -20l-20 -74c0 -102.667 17.667 -183.334 53 -242.001z" />
    <glyph glyph-name="parenright" unicode=")" horiz-adv-x="235" 
d="M67 678c40.667 -4.66699 69.667 -29.334 87 -74.001l27 -74l27 -127l-7 -242c-35.333 -192.667 -73.333 -289 -114 -289c-31.333 4.66699 -51.333 18.334 -60 41.001l54 335c8.66699 36 -9.33301 163.667 -54 383zM128 168l20 6l33 128c-18 116.667 -38 183.667 -60 201
l-20 -6l20 -155z" />
    <glyph glyph-name="asterisk" unicode="*" horiz-adv-x="358" 
d="M174 497l73.999 -20l81 -94c4.66699 -112 -35.666 -179.333 -120.999 -202l-134 27c-26.667 8.66699 -44.667 35.667 -54 81c-8.66699 62.667 0.333008 114 27 154zM160.999 315c26.667 -4 40 0.666992 40 14l-6 33l-41 -6z" />
    <glyph glyph-name="comma" unicode="," horiz-adv-x="316" 
d="M114 188c102.667 13.333 161.001 -18.001 175.001 -94.001c4 -107.333 -0.666992 -170 -14 -188c-36 -49.333 -65 -71.666 -87 -66.999c-62.667 -4.66699 -98.334 2 -107.001 20c0 94 -11.333 152.333 -34 175c-13.333 80 9 131.333 67 154zM195.001 -60.001
c26.667 0 46.667 20.001 60 60.001c4.66699 62.667 -17.666 109.667 -66.999 141c-36 13.333 -67.333 -2.33398 -94 -47.001c-4.66699 -26.667 -0.333984 -46.667 12.999 -60l81 -54z" />
    <glyph glyph-name="hyphen" unicode="-" horiz-adv-x="415" 
d="M101 336c58 -9.33301 116 -9.33301 174 0l34 -34c8.66699 -76 -2.66602 -116.333 -33.999 -121c-84.667 9.33301 -142.667 9.33301 -174 0l-34 34c-8.66699 76 2.66602 116.333 33.999 121zM154 208c31.333 0 67.333 11.333 108 34v40l-41 27h-67l-47 -41l14 -40z" />
    <glyph glyph-name="hyphen" unicode="&#x2010;" horiz-adv-x="415" 
d="M101 336c58 -9.33301 116 -9.33301 174 0l34 -34c8.66699 -76 -2.66602 -116.333 -33.999 -121c-84.667 9.33301 -142.667 9.33301 -174 0l-34 34c-8.66699 76 2.66602 116.333 33.999 121zM154 208c31.333 0 67.333 11.333 108 34v40l-41 27h-67l-47 -41l14 -40z" />
    <glyph glyph-name="period" unicode="." horiz-adv-x="280" 
d="M101 188c80 18 133.667 -9 161 -81c4 -94 -20.667 -143 -74 -147c-94 -13.333 -150 11.334 -168 74.001c-17.333 71.333 9.66699 122.666 81 153.999zM128 0c17.333 -8.66699 46.334 9.33398 87.001 54.001v33c-9.33301 22.667 -27.333 40.667 -54 54
c-18 13.333 -49.333 -2.33398 -94 -47.001c-8.66699 -26.667 11.666 -58 60.999 -94z" />
    <glyph glyph-name="slash" unicode="/" horiz-adv-x="348" 
d="M242 678c40 4.66699 68.999 -8.66699 86.999 -40l-20 -101c-103.333 -304 -155 -485.333 -155 -544l-13 -20l-27 -13c-58 13.333 -87 29 -87 47l27 127c84.667 246 133.667 411.667 147 497c4.66699 22 18.334 37.667 41.001 47z" />
    <glyph glyph-name="zero" unicode="0" horiz-adv-x="613" 
d="M234 715c218.667 29.333 337.667 -51.001 357 -241.001c-9.33301 -77.333 -9.33301 -155 0 -233c-14.667 -97.333 -41.334 -165.666 -80.001 -204.999c-38.667 -38.667 -80 -60.334 -124 -65.001c-107.333 -10 -192.666 2 -255.999 36
c-63.333 48.667 -99.666 119.334 -108.999 212.001l7 277c19.333 122 87.666 195 204.999 219zM292 6.99902c78 -4.66699 146 32.001 204 110.001c10 14.667 32 90 66 226c-14.667 131.333 -31.667 206.666 -51 225.999c-38.667 54 -97 90.667 -175 110
c-92.667 4.66699 -165.667 -29.333 -219 -102l-44 -103l-22 -131l29 -168c39.333 -92.667 110 -148.667 212 -168zM248 555c102 9.33301 153.001 -3 153.001 -37c5.33301 -53.333 0.666016 -94.666 -14.001 -123.999l7 -95l-14 -44l7 -73l-37 -36
c-77.333 -14.667 -123.333 0 -138 44c9.33301 131.333 9.33301 240.666 0 327.999zM292.001 190c14.667 -10 31.667 -0.332031 51 29.001l15 44c-10 87.333 -7.66699 136 7 146c0 63.333 -19.333 99.666 -58 108.999c-24.667 0 -42 -9.66699 -52 -29l-14 -36
c-14.667 -151.333 2.33301 -239 51 -263z" />
    <glyph glyph-name="one" unicode="1" horiz-adv-x="353" 
d="M263 825c43.333 0 67.667 -12.334 73 -37.001l-29 -226l7 -409l-37 -36l-168 7l-36 37c10 174.667 22 291.334 36 350.001l-7 95l-87 80c0 68 12 104.667 36 110l161 14zM168.001 160.999l87 7l30 51c-10 336 -10 506.333 0 511l-51 44c-78 0 -129.333 -9.66699 -154 -29
v-44c29.333 -10 51.333 -32 66 -66c4.66699 -63.333 -0.333008 -114.333 -15 -153c14.667 -39.333 10 -129.333 -14 -270c14.667 -24.667 31.667 -41.667 51 -51z" />
    <glyph glyph-name="two" unicode="2" horiz-adv-x="557" 
d="M212 715c199.333 24.667 308.666 -31.335 327.999 -168.002v-138c-9.33301 -44 -21.333 -71 -36 -81c-5.33301 -19.333 -51.666 -50.666 -138.999 -93.999v-22l22 -15l109 7l37 -36l-7 -132l-37 -36l-226 15l-197 -8l-37 37c-4.66699 87.333 0.333008 165 15 233
c14.667 39.333 39 71 73 95v29c-54 14.667 -81 34.334 -81 59.001c-28 126.667 30.667 211.667 176 255zM124 35.998l320.999 7.99902l44 44c4.66699 28.667 -12.333 53 -51 73l-197 -8l-37 37c-9.33301 14.667 0.666992 36.334 30 65.001
c174.667 44 264.667 119.667 270 227c-20 102 -81 167.667 -183 197c-24 4.66699 -67.667 -2.66602 -131 -21.999l-81 -66l-29 -51c-4.66699 -53.333 10 -82.333 44 -87l58 7l22 22c0 63.333 14.667 99.666 44 108.999c58.667 10 95.334 -2 110.001 -36
c4.66699 -92.667 -0.333008 -144 -15 -154l-36 -21c-122 -29.333 -195 -78 -219 -146l-22 -139l22 -37zM262.999 452.997c34 -10 53.333 -0.333008 58 29l-14 51h-44l-15 -29z" />
    <glyph glyph-name="three" unicode="3" horiz-adv-x="585" 
d="M204 650c122 4.66699 202.331 -2.66504 240.998 -21.998c58.667 -34 90.334 -80.333 95.001 -139c4.66699 -107.333 -2.66602 -163.333 -21.999 -168v-44l51 -95c14.667 -170 -48.333 -262.333 -189 -277c-73.333 10 -134.333 10 -183 0
c-97.333 10 -155.666 58.667 -174.999 146c-10 73.333 2 114.666 36 123.999l81 -7l51 51l-8 117l-51 29h-73c-42.667 19.333 -47.334 77.666 -14.001 174.999c34 63.333 87.333 100 160 110zM116.998 401.001l57.9961 15.001l37 73
c14.667 19.333 48.667 21.666 102 6.99902l36 -36l-7 -102l-36 -37c-39.333 0 -61.333 -19.333 -66 -58c4.66699 -19.333 38.667 -34 102 -44l29 -44l8 -109l-37 -37h-95c-19.333 0 -41.333 31.667 -66 95l-65 22c-24.667 -14.667 -41.667 -31.667 -51 -51
c9.33301 -78 70 -129 182 -153c126.667 -10 219.334 38.667 278.001 146l-8 87c5.33301 10 -31 44 -109 102v30c82.667 58 109.334 118.667 80.001 182c-29.333 58.667 -87.666 100 -174.999 124c-97.333 10 -177.666 -38.667 -240.999 -146l7 -36zM254.994 380.002
l44.001 13.999c5.33301 19.333 0.666016 34 -14.001 44c-20 4.66699 -34.667 -0.333008 -44 -15c-4.66699 -19.333 0 -33.666 14 -42.999zM276.995 80.001c24.667 -9.33301 44.334 2.99902 59.001 36.999l-22 51c-34 4.66699 -53.667 -2.66602 -59 -21.999
c-4.66699 -10 2.66602 -32 21.999 -66z" />
    <glyph glyph-name="four" unicode="4" horiz-adv-x="645" 
d="M336 628c14.667 4.66699 29.333 -2.66699 44 -22c14 -146 -0.666992 -224 -44 -234h-102l-30 29l8 44c68 116.667 109.333 177.667 124 183zM320.999 795.999l168.002 -14.998l37 -36l-8 -176l15 -36l7 -117l73 -44c19.333 -34 21.666 -77.667 6.99902 -131l-87 -66
l-15 -36c19.333 -48.667 9.66602 -80.334 -29.001 -95.001c-97.333 9.33301 -153.333 9.33301 -168 0l-36 36l7 66l-22 44l-44 29l-160 -7l-37 36c-14.667 92.667 2.33301 173 51 241c136.667 209.333 217 311.666 241 306.999zM124.001 241.001l160.998 7l36 -36l-7 -66
l22 -44l44 -29h51l51 36l14 37c-9.33301 24 -9.33301 50.667 0 80c58.667 34 88 61 88 81l-15 29c-53.333 24 -77.666 41 -72.999 51c-9.33301 78 -9.33301 175.333 0 292c-9.33301 29.333 -28.666 51.333 -57.999 66h-88c-63.333 -58.667 -158 -195 -284 -409l7 -59z" />
    <glyph glyph-name="five" unicode="5" horiz-adv-x="585" 
d="M226 547l110 0.00195312l73 -14l58 51c14.667 19.333 0 43.666 -44 72.999l-292 -7l-29 -44l-14 -153v-139l43 -37l95 37l124 -7l37 -37c-10 -38.667 -10 -85 0 -139l-37 -36h-87c-24.667 4.66699 -41.667 29 -51 73c-24.667 24 -51.667 31.333 -81 22l-36 -37
c-10 -14.667 12 -48.667 66 -102l124 -44c102 -9.33301 187 49 255 175c14.667 117.333 -48.666 197.666 -189.999 240.999c-28.667 0 -72.334 -12 -131.001 -36l-37 29v95zM285 146.002h36l29 36c5.33301 44 -11.667 73.333 -51 88c-9.33301 4.66699 -24 -10 -44 -44z
M102 701.002c126.667 -10 253.332 -10.001 379.999 -0.000976562l36 -37l-14 -131c-14.667 -19.333 -39 -31.666 -73 -36.999l-15 -29l102 -58c58.667 -39.333 78.334 -134.333 59.001 -285c-44 -87.333 -107.333 -138.333 -190 -153c-214 -14.667 -331 41.333 -351 168
l30 525z" />
    <glyph glyph-name="six" unicode="6" horiz-adv-x="593" 
d="M234 752c184.667 24 291.665 -32 320.998 -168c4.66699 -53.333 -2.66602 -87.333 -21.999 -102l-7 -37c34 -43.333 51 -82.333 51 -117c14.667 -194.667 -48.666 -301.667 -189.999 -321c-219.333 -28.667 -341 49.333 -365 234c9.33301 78 9.33301 155.667 0 233
l22 110c9.33301 34 31 70.333 65 109c29.333 29.333 71 49 125 59zM284.998 44c131.333 0 216.334 70.332 255.001 210.999c-4.66699 88 -48.334 151.333 -131.001 190c-48.667 10 -100 0.333008 -154 -29l-29 29c-9.33301 102.667 3 156.334 37 161.001l109 -7l66 -66
c29.333 -10 51.333 2 66 36c-24.667 73.333 -80.667 122 -168 146c-92.667 5.33301 -165.667 -31 -219 -109c-10 -10 -32 -88 -66 -234c10 -102 22.333 -167.667 37 -197c43.333 -68 109 -111.667 197 -131zM225.999 342.999c54 -10 95.333 -10 124 0l37 -36l-7 -125
l-37 -36l-117 7l-36 37c-10 102 2 153 36 153zM276.999 189.999c29.333 4.66699 51.332 21.667 65.999 51c4.66699 9.33301 -10 31.333 -44 66c-29.333 4.66699 -53.666 -12.666 -72.999 -51.999c5.33301 -28.667 22.333 -50.334 51 -65.001zM306.998 488.999l43 15v43
l-29 15c-19.333 0 -34 -9.66699 -44 -29c-9.33301 -10 0.666992 -24.667 30 -44z" />
    <glyph glyph-name="seven" unicode="7" horiz-adv-x="497" 
d="M51 701l190 -8.00098c19.333 -19.333 90 -21.666 212 -6.99902l36 -36l-7 -168c-78 -131.333 -136.333 -282.333 -175 -453c-5.33301 -24 -20 -41 -44 -51c-54 10 -117.333 10 -190 0l-37 37c39.333 136 98 282 176 438c9.33301 4.66699 -3 21.667 -37 51l-131 -8l-37 37
l8 131zM153 6.99902c44 -4.66699 80.667 12.333 110 51c38.667 175.333 102 343.333 190 504l-8 58l-51 37c-126.667 -10 -224 -10 -292 0c-24 -14.667 -41 -31.667 -51 -51c4.66699 -29.333 21.667 -51.333 51 -66l168 7l29 -29l-7 -44l-117 -233l-66 -183l8 -22z" />
    <glyph glyph-name="eight" unicode="8" horiz-adv-x="621" 
d="M591 657c10 -97.333 0.332031 -155.666 -29.001 -174.999v-59c48.667 -53.333 58.334 -138.333 29.001 -255c-38.667 -63.333 -99.334 -100 -182.001 -110l-219 8c-92.667 19.333 -148.667 68 -168 146c-4.66699 121.333 12.333 191.666 51 210.999v66
c-38.667 34 -41 109.333 -7 226c34 48.667 87.333 78 160 88c73.333 -10 134.333 -10 183 0c106.667 -19.333 167.334 -68 182.001 -146zM284.999 95c136 -4.66699 228.331 41.667 276.998 139c24.667 58 -11.666 121 -108.999 189l7 44c78 63.333 107 119.333 87 168
c-34 68 -99.667 111.667 -197 131c-87.333 0 -148 -12 -182 -36c-34 -29.333 -60.667 -61 -80 -95v-66l29 -51l58 -44c10 -9.33301 10 -26.333 0 -51c-44 -24 -78 -58 -102 -102c-29.333 -112 41.334 -187.333 212.001 -226zM276.997 664.001
c73.333 10 114.667 -1.99902 124 -35.999c10 -88 -2 -134.333 -36 -139c-82.667 -4.66699 -124 12.333 -124 51c-10 73.333 2 114.666 36 123.999zM306.998 540.002c24 -4.66699 41 0.333008 51 15c4.66699 24 -0.333008 43.333 -15 58c-24 10 -43.333 0.333008 -58 -29z
M247.998 401.002c53.333 -9.33301 94.666 -9.33301 123.999 0l37 -36c9.33301 -102 -3 -155.667 -37 -161c-53.333 10 -94.666 10 -123.999 0l-36 37c-10 102 2 155.333 36 160zM298.998 241.002c29.333 -4.66699 53.666 12.333 72.999 51
c5.33301 29.333 -11.667 53.666 -51 72.999c-29.333 4.66699 -53.666 -12.333 -72.999 -51c-4.66699 -29.333 12.333 -53.666 51 -72.999z" />
    <glyph glyph-name="nine" unicode="9" horiz-adv-x="621" 
d="M226 715c243.333 10 367.667 -60.332 373 -210.999l-8 -300c-29.333 -146 -99.666 -223.667 -210.999 -233c-126.667 -4.66699 -212 2.66602 -256 21.999c-58.667 34 -90.334 80 -95.001 138c-4.66699 78 2.66602 117 21.999 117c14.667 14.667 7.33398 61 -21.999 139
c-14.667 204 51 313.333 197 328zM241.001 270.001l95 15.0039l36 -37c10 -82.667 -2 -126.334 -36 -131.001h-95l-37 29c-9.33301 29.333 -31 48.666 -65 57.999h-37l-29 -43c14.667 -78 78 -129.333 190 -154c24 -4.66699 70 2.66602 138 21.999
c48.667 19.333 90.334 60.666 125.001 123.999l43 205c0 97.333 -21.667 175 -65 233c-48.667 44 -107.334 73.333 -176.001 88c-140.667 0 -228 -70.667 -262 -212c0 -102 58.333 -167.667 175 -197zM263.001 569.005c102 10 153 -2.00098 153 -36.001
c-10 -39.333 -10 -85.666 0 -138.999l-36 -36l-125 7l-36 36l7 132zM307.001 401.004c28.667 -4.66699 52.999 12.667 72.999 52c4.66699 34 -12.666 60.667 -51.999 80c-28.667 -4.66699 -50.334 -21.667 -65.001 -51c-5.33301 -34 9.33398 -61 44.001 -81zM277 161.005
l44 14c4.66699 24.667 -2.66602 41.667 -21.999 51l-44 -14c-4.66699 -24.667 2.66602 -41.667 21.999 -51z" />
    <glyph glyph-name="colon" unicode=":" horiz-adv-x="312" 
d="M134 503c103.333 13.333 161.668 -10.999 175.001 -72.999l-7 -108l-27 -33c-36 -9.33301 -56 -20.666 -60 -33.999c-4.66699 -13.333 8.66602 -31.333 39.999 -54c36 -98 16 -160.667 -60 -188c-94 -13.333 -150 11.334 -168 74.001l7 108
c8.66699 13.333 37.667 35.666 87 66.999v20c-44.667 31.333 -62.667 80.666 -54 147.999c4.66699 35.333 27 59.666 67 72.999zM168.002 315.001c26.667 -13.333 58.001 2.33105 94.001 46.998c18 22.667 0 56.334 -54 101.001c-40 9.33301 -73.667 -8.66699 -101 -54
c-8.66699 -17.333 11.666 -48.666 60.999 -93.999zM134.003 53.998c9.33301 -13.333 38.333 2.33301 87 47c9.33301 40 -10.667 73.333 -60 100c-36 9.33301 -67.333 -10.667 -94 -60l14 -47z" />
    <glyph glyph-name="semicolon" unicode=";" horiz-adv-x="283" 
d="M87 423c103.333 4.66699 159.334 -20.001 168.001 -74.001c4.66699 -98.667 -20 -150 -74 -154c-89.333 -14 -143 10.333 -161 73c-4.66699 98.667 17.666 150.334 66.999 155.001zM114.001 241.999c26.667 -14 58 1.66602 94 46.999c8.66699 26.667 -11.333 58 -60 94
c-31.333 4 -58.333 -11.667 -81 -47c-4.66699 -45.333 11 -76.666 47 -93.999zM87.001 140.998c103.333 13.333 161.668 -18 175.001 -94c13.333 -165.333 -20.334 -250.333 -101.001 -255c-53.333 -4.66699 -87 2 -101 20l-6 107l-34 68c-13.333 80 9 131.333 67 154z
M181.003 -87.002c22.667 -4.66699 38.332 8.66797 46.999 40.001c4.66699 62.667 -17.666 109.667 -66.999 141c-36 13.333 -67.333 -2.33398 -94 -47.001c-4.66699 -26.667 0 -46.667 14 -60c66.667 -31.333 100 -56 100 -74z" />
    <glyph glyph-name="question" unicode="?" horiz-adv-x="547" 
d="M181 785c201.333 13.333 313.331 -29.001 335.998 -127.001c4 -85.333 -2.66699 -152.666 -20 -201.999l-61 -60c-49.333 -4.66699 -82.666 -20.334 -99.999 -47.001l-7 -20c49.333 -116.667 36 -188.334 -40 -215.001c-103.333 -13.333 -161.666 11.334 -174.999 74.001
c-8.66699 40 0.333008 87 27 141c8.66699 84.667 6.33398 145 -6.99902 181l-20 20c-88.667 4.66699 -115.334 56.334 -80.001 155.001c40 66.667 89 100 147 100zM100.998 569.999l39.999 -0.00390625l40 27c4.66699 36 20.334 56.333 47.001 61
c76 8.66699 116.333 -2.66602 121 -33.999l-7 -114l-27 -20c-71.333 8.66699 -116 -2.66602 -134 -33.999l-13 -40c8.66699 -26.667 26.334 -46.667 53.001 -60l54 13l47 47c67.333 4.66699 119 47.334 155 128.001c26.667 94 -36 163.333 -188 208
c-107.333 4 -181.333 -36.333 -222 -121c-8.66699 -9.33301 2.66602 -29.666 33.999 -60.999zM220.997 153.995c36 -4 65.335 11.667 88.002 47c13.333 13.333 -2.33398 40.333 -47.001 81c-40.667 13.333 -74.334 0 -101.001 -40c-8.66699 -18 11.333 -47.333 60 -88z" />
    <glyph glyph-name="A" unicode="A" 
d="M246 657l216.999 -7.99902c29.333 -20 49 -52.333 59 -97l157 -552c0 -30 -12.333 -50 -37 -60c-80 10 -149.667 10 -209 0l-30 23l-30 74c-30 35.333 -52.333 50.333 -67 45c-30 -4.66699 -52.333 -39.334 -67 -104.001c-25.333 -30 -57.666 -42.667 -96.999 -38l-8 8
c-59.333 -20 -99 -10 -119 30c-5.33301 34.667 9.66699 96.667 45 186l149 463zM111.999 -21.999c20 -5.33301 42.335 2 67.002 22l37 90c15.333 29.333 67.666 39 156.999 29l37 -22l23 -67c49.333 -50 81.666 -70 96.999 -60c14.667 -14.667 42 0.333008 82 45
c10 4.66699 -39.667 188.667 -149 552c-25.333 24.667 -60.333 42 -105 52c-59.333 10 -99 -9.66699 -119 -59l-164 -515c-10 -10 2.33301 -32.333 37 -67zM321.001 493.001l37 -15l45 -172c10 -44.667 0 -69.667 -30 -75c-69.333 -10 -109 2.66699 -119 38l45 201z" />
    <glyph glyph-name="B" unicode="B" horiz-adv-x="596" 
d="M60 567v-440.001c10 -40 29.667 -65 59 -75c64.667 30 122 27.667 172 -7c119.333 -15.333 201.333 59.334 246 224.001c0 104 -42.333 181 -127 231h-82l-74 -37c-20 0 -32.667 10 -38 30v149l-59 59c-15.333 5.33301 -40.333 -2 -75 -22zM60 738.999l111.999 -15.001
c39.333 20 69 10 89 -30l-7 -104l22 -38c129.333 0 209 -15 239 -45c64.667 -69.333 79.667 -188.666 45 -357.999c-35.333 -89.333 -90 -139 -164 -149l-247 15c-69.333 -20 -111.666 -10 -126.999 30l15 127v388c-14.667 34.667 -19.667 81.667 -15 141zM268.999 395.998
c54.667 14.667 89.333 -0.333008 104 -45c15.333 -109.333 0.333008 -179 -45 -209c-89.333 -10 -136.333 2.33301 -141 37l7 187c14.667 20 39.667 30 75 30zM253.998 186.998c30 -15.333 54.667 -0.666016 74 44.001c10 45.333 0.333008 82.666 -29 111.999h-45l-38 -59
c-10 -10 2.66699 -42.333 38 -97z" />
    <glyph glyph-name="C" unicode="C" horiz-adv-x="574" 
d="M216 649c209.333 25.333 326.332 -31.667 350.999 -171c15.333 -30 0.333008 -60 -45 -90h-119l-90 82c-29.333 0 -51.666 -22.333 -66.999 -67c-10 -10 2.66699 -44.667 38 -104h29l45 37c25.333 14.667 80 19.667 164 15l45 -45
c-10 -119.333 -69.667 -186.666 -179 -201.999c-224 -14.667 -348.333 52.666 -373 201.999c-14 214 53 328.333 201 343zM290.999 142c20 -5.33301 59.667 1.99805 119 21.998l90 82c4.66699 10 -10.333 32.333 -45 67l-127 -67c-59.333 -10 -96.666 2.66699 -111.999 38
c10 74.667 10 139.334 0 194.001c10 24.667 32.667 39.334 68 44.001h74c54.667 -69.333 89.667 -99 105 -89c10 -5.33301 24.667 9.66699 44 45c-9.33301 59.333 -71.333 104 -186 134c-144.667 0 -234.334 -72 -269.001 -216c10 -139.333 89.667 -224 239 -254z" />
    <glyph glyph-name="D" unicode="D" horiz-adv-x="591" 
d="M396 761c39.333 -10 86.334 -10 141.001 0l38 -37l-15 -127v-358c14.667 -34.667 19.667 -82 15 -142l-38 -37l-74 7l-150 -22c-168.667 -30 -268 29.667 -298 179c-14 124 1 216 45 276l44 45c35.333 30 112.666 42.333 231.999 37l30 37l-8 105zM52.001 336
c-10 -129.333 49.666 -214.002 178.999 -254.002c30 0 75 12.333 135 37l119 -22c34.667 4.66699 52 49.334 52 134.001v411l-15 52l-44 30c-40 0 -65 -20 -75 -60l7 -142c-9.33301 -19.333 -21.666 -29 -36.999 -29c-64.667 44.667 -136.667 49.334 -216 14.001
c-40 -24.667 -75 -81.667 -105 -171zM224 409.998c89.333 15.333 139 0.666992 149 -44c10 -119.333 -2.33301 -179 -37 -179c-99.333 -10 -149 2.33301 -149 37c9.33301 50 9.33301 99.667 0 149zM276 223.999c24.667 4.66699 44.667 22 60 52
c10 15.333 -2.33301 45.333 -37 90l-45 -8l-38 -59c10 -40 30 -65 60 -75z" />
    <glyph glyph-name="E" unicode="E" horiz-adv-x="658" 
d="M60 642c14.667 -40 19.668 -87.332 15.001 -141.999h-8c10 -64.667 7.66699 -122 -7 -172c-5.33301 -59.333 -0.333008 -111.333 15 -156l67 -38l52 15l261 -15l105 8l37 45c14.667 49.333 -20 81.666 -104 96.999l-262 -8l-37 37c-4.66699 60 0.333008 90 15 90
c4.66699 20 99.334 30 284.001 30c24.667 20 32 42.333 22 67l-52 37l-157 -7c-24.667 10 -39.667 32.333 -45 67c-4.66699 64.667 22.666 97 81.999 97l179 -7l45 29v45l-45 30h-119l-52 -15l-105 8c-34.667 -15.333 -79.334 -20.333 -134.001 -15
c-24.667 0 -42 -42.333 -52 -127zM157.001 813.001l119.001 -7l75 15c69.333 -10 146.333 -10 231 0l37 -37c10 -74.667 -2.33301 -117 -37 -127c-104.667 20 -191.667 10 -261 -30v-37l45 -30l156 7l38 -37c10 -99.333 -2.66699 -149 -38 -149c-154 14.667 -241 7 -261 -23
c-10 -4.66699 0 -22 30 -52h194c119.333 44.667 171.666 7.33398 156.999 -111.999c0 -64.667 -12.667 -97 -38 -97l-201 15c-119.333 -10 -201.333 -10 -246 0c-84.667 -24.667 -129.667 -17.334 -135 21.999l15 194c-10 84.667 -7.33301 139.667 8 165l-15 59l7 82
c-20 30 -22.333 80 -7 150c0 19.333 42.333 29 127 29z" />
    <glyph glyph-name="F" unicode="F" horiz-adv-x="606" 
d="M75 724l104.001 -8l82 15c80 -10 177 -10 291 0l38 -37c9.33301 -104.667 -3.33398 -157 -38.001 -157l-246 15l-60 -45v-44l53 -38l216 8l37 -37c10 -100 -2.33301 -150 -37 -150l-164 8l-52 -38l-15 -37l7 -142l-37 -37l-142 15c-40 -20 -70 -10 -90 30l15 343l-7 291z
M119.001 37l105 14.998l37 52l-7 142l37 38l164 -8l38 23l22 37l-15 37l-45 30l-216 -7l-38 37c-9.33301 99.333 3.33398 149 38.001 149c79.333 -10 168.666 -10 267.999 0l38 30c20 24.667 0 54.334 -60 89.001h-179c-30 -19.333 -79.667 -21.666 -149 -6.99902
c-40 -4.66699 -72.333 -32 -97 -82l7 -493h-7l7 -44z" />
    <glyph glyph-name="G" unicode="G" horiz-adv-x="561" 
d="M179 731l342.999 -15l38 -37c-10 -154 -10 -328 0 -522c-20 -94.667 -82.333 -149.334 -187 -164.001c-74.667 9.33301 -136.667 9.33301 -186 0c-104.667 14.667 -162 61.667 -172 141v75c34.667 44.667 49.667 72 45 82c-25.333 44.667 -40.333 84.334 -45 119.001v150
c24.667 104 79.334 161 164.001 171zM215.999 418c10 44.667 10 89.334 0 134.001l38 38c104 4.66699 156 -10.333 156 -45c10 -104.667 -2.33301 -159.334 -37 -164.001c-104.667 -10 -157 2.33301 -157 37zM238.999 30c79.333 -10 151.334 9.99902 216.001 59.999
c30 14.667 55 69.334 75 164.001v358l-15 37l-30 23h-30l-45 -30l-141 45c-110 9.33301 -182.333 -53 -217 -187c-4.66699 -89.333 42.666 -164 141.999 -224l142 8l22 -30c10 -84.667 -2.33301 -129.667 -37 -135h-90l-74 75c-35.333 20 -65.333 10 -90 -30
c0 -40 20 -72.333 60 -97zM306 417.999c30 4.66699 52.333 22 67 52l-15 52l-37 23l-52 -15l-15 -30c-5.33301 -34.667 12 -62 52 -82zM254 171.999h45v44h-45v-44z" />
    <glyph glyph-name="H" unicode="H" horiz-adv-x="678" 
d="M254 590l-8 -180l23 -37l37 -22h45l52 37l15 37c-10 100 -10 152.333 0 157c10 20 42.333 30 97 30c99.333 10 149 -2.33301 149 -37c5.33301 -54.667 0.333008 -99.667 -15 -135l8 -470l-38 -37l-89 -8c-60 -10 -97.333 2.66699 -112 38l15 127l-15 44l-45 38l-45 -8
l-37 -45l-7 -164c-15.333 -44.667 -50.333 -62 -105 -52l-112 7l-37 38l7 186l8 179l-15 68l7 216c10 20 42.333 30 97 30c70 10 110 -2.33301 120 -37zM119 -52l97.002 7.00098l30 60l8 157c4.66699 19.333 19.667 31.666 45 36.999c104 10 158.667 -2.33301 164 -37
c-15.333 -114.667 2 -182 52 -202c54.667 -4.66699 92 20.333 112 75v425c-5.33301 50 -20.333 82.333 -45 97l-104 -7l-38 -60l8 -142l-38 -37c-54.667 10 -109.334 10 -164.001 0l-37 37c10 25.333 10 90 0 194l-37 30l-75 -7l-37 -60l15 -187l-8 -328
c15.333 -24.667 32.666 -42 51.999 -52z" />
    <glyph glyph-name="I" unicode="I" horiz-adv-x="285" 
d="M45 627l15 -187h-8l8 -231l-15 -82l22 -45l45 -30h52l52 38l15 37l-15 201h8c-10 154.667 -7.66699 242 7 262c5.33301 44.667 -22 81.667 -82 111h-37l-52 -37zM52 731c50 -10 107.332 -10 171.999 0l37 -37c-10 -50 -10 -119.667 0 -209l-15 -67l15 -164
c-10 -64.667 -10 -129.334 0 -194.001l-37 -38c-99.333 10 -156.666 10 -171.999 0l-37 38c10 44.667 10 116.667 0 216l15 67v90l-15 67c10 74.667 10 139.334 0 194.001z" />
    <glyph glyph-name="J" unicode="J" horiz-adv-x="510" 
d="M299 813l171 -7.00098l37 -37c-9.33301 -45.333 -9.33301 -117.666 0 -216.999l-14 -74l7 -239c-30 -114.667 -89.667 -172 -179 -172h-157c-79.333 10 -129 59.667 -149 149v150l37 37c70 -10 117.333 -10 142 0c14.667 -14.667 32 -19.667 52 -15l30 52l-15 336z
M52 312.999c5.33301 -114 60.001 -183.668 164.001 -209.001c139.333 -4.66699 224 70 254 224c-10 144.667 -7.33301 269 8 373c-10 30 -30 52.667 -60 68c-64.667 14.667 -104.334 -0.333008 -119.001 -45l7 -470l-37 -38l-53 8c-19.333 4.66699 -29 39.334 -29 104.001
c-15.333 25.333 -40.333 40.333 -75 45l-37 -22z" />
    <glyph glyph-name="K" unicode="K" horiz-adv-x="577" 
d="M373 604h149l30 -29l-15 -60c-54.667 -50 -79.334 -80 -74.001 -90l15 -59c74.667 -129.333 109.334 -199 104.001 -209l-30 -45l-127 -22c-49.333 0 -76.666 9.66699 -81.999 29l-59 105l-38 7c-14.667 -4.66699 -24.667 -42 -30 -112l-37 -22c-40 10 -79.667 10 -119 0
l-38 37l8 463c-15.333 24.667 -20.333 82 -15 172c24.667 34.667 52 49.334 82 44.001c89.333 10 136.666 -2.33301 141.999 -37c-15.333 -64.667 -8 -139.334 22 -224.001h45l75 52h-8zM112 134c40 0 62.334 9.99805 67.001 29.998c0 80 12.333 129.667 37 149l45 30
l60 -37c40 -109.333 72.333 -161.666 97 -156.999c4.66699 -14.667 32 -7 82 23v44l-104 187v52l44 60l-7 37c-24.667 20 -79.334 -19.667 -164.001 -119l-45 -8l-15 23l-8 112l8 149l-45 60c-64.667 10 -102 -10 -112 -60l8 -105l-8 -403c10 -29.333 30 -51.666 60 -66.999
z" />
    <glyph glyph-name="L" unicode="L" horiz-adv-x="490" 
d="M104 731c104.667 10 157 -2.33594 157 -37.0029l-7 -410l22 -45l45 -30l172 7l37 -37c14.667 -79.333 -0.333008 -136.666 -45 -171.999h-112l-45 15c-164 -10 -258.333 -10 -283 0l-38 38c10 44.667 10 109.334 0 194.001c20 54.667 22.667 199 8 433
c20 34.667 49.667 49.334 89 44.001zM187 44.9971l261 7l37 38v52l-52 45l-172 -8l-37 37l7 411l-15 37l-29 23l-105 -8l-37 -60c10 -293.333 7.33301 -457.333 -8 -492l38 -60z" />
    <glyph glyph-name="M" unicode="M" horiz-adv-x="853" 
d="M291 642c94.667 10 159.333 -0.00195312 194 -30.002l134 30c80 10 147.333 -2.66699 202 -38c24.667 -19.333 39.667 -49 45 -89c-10 -139.333 -10 -258.666 0 -357.999l-38 -38c-69.333 10 -116.333 10 -141 0l-38 38l8 127c-15.333 29.333 -20.333 69 -15 119l-23 37
h-44l-30 -52l7 -224l-37 -37l-149 7l-38 38l8 201l-15 37l-30 23c-24.667 0 -42 -10 -52 -30l-15 -45c10 -119.333 10 -189 0 -209s-40 -30 -90 -30c-74.667 -10 -117 2.66699 -127 38l15 171v142c-24 74.667 -16.333 119.334 23 134.001h142zM417.999 171.998
l67.002 7.00098l37 60l-7 216l30 38c109.333 14.667 156.666 -20.333 141.999 -105l-8 -164l22 -45l45 -30c10 -4.66699 30 3 60 23l30 52c4.66699 154 -3 248.333 -23 283c-24.667 50 -69.334 82.333 -134.001 97c-50 5.33301 -104.667 -19.334 -164 -74.001h-37l-97 67
c-60 0 -102.333 -12.333 -127 -37c-44.667 -30 -89.667 -27.667 -135 7c-29.333 0 -49 -10 -59 -30l-15 -59c-15.333 -179.333 2 -284 52 -314l67 8l37 59l-7 202l45 45c74.667 10 117 -2.66699 127 -38c-25.333 -168.667 -8 -258 52 -268z" />
    <glyph glyph-name="N" unicode="N" horiz-adv-x="544" 
d="M321 455c144 10 215.999 -22.332 215.999 -96.999v-179c-20 -20 -22.333 -89.667 -7 -209l-37 -37l-135 7l-37 38c14.667 144 7.33398 231 -21.999 261h-45l-23 -45c10 -84.667 10 -149.334 0 -194.001l-44 -45c-104.667 -10 -157 2.66699 -157 38
c10 134 10 268.333 0 403l37 37l172 -8l89 30h-7zM409.999 -21.999c25.333 -10 55.333 9.66602 90 58.999l-7 299l-38 52l-37 22c-60 10 -124.667 -9.66699 -194 -59c-20 -10 -50 0 -90 30c-20 14.667 -44.667 -3 -74 -53v-268c10 -30 29.667 -52.333 59 -67
c20 0 42.667 12.333 68 37l22 112l-8 127l30 37c84.667 4.66699 127 -12.666 127 -51.999l-7 -209c10 -30 29.667 -52.333 59 -67z" />
    <glyph glyph-name="O" unicode="O" horiz-adv-x="688" 
d="M284 746c263.333 25.333 407.334 -61.667 432.001 -261c20 -273.333 -62 -435 -246 -485c-268.667 -24.667 -418 72.333 -448 291c10 70 10 139.667 0 209c25.333 149.333 112.666 231.333 261.999 246zM358.001 37c164 5.33301 270.999 112.332 320.999 320.999
c0 194 -89.667 311 -269 351c-124 -5.33301 -211 -32.666 -261 -81.999c-39.333 -34.667 -71.666 -111.667 -96.999 -231l45 -180c54.667 -94 141.667 -153.667 261 -179zM276 566.999l187 -7l37 -38l-15 -223c20 -74.667 7.66699 -119.667 -37 -135
c-99.333 -4.66699 -159 0.333008 -179 15c-20 10 -30 40 -30 90c10 109.333 10 196.333 0 261zM336 208.999c69.333 -20 111.667 12.333 127 97l-8 179l-45 37c-64.667 20 -111.667 0.333008 -141 -59c-5.33301 -35.333 2 -110 22 -224z" />
    <glyph glyph-name="P" unicode="P" horiz-adv-x="559" 
d="M60 597c10 -54.667 10.001 -219.002 0.000976562 -493.002c10 -29.333 29.667 -51.666 59 -66.999c30 -20 65 0 105 60c-20 89.333 -10 139 30 149c144 -39.333 238.333 30.334 283 209.001c-4.66699 124.667 -69.334 202 -194.001 232l-82 -15l-82 -53l-89 15z
M261.001 723.998c174 24.667 278.667 -32.667 314 -172c14.667 -109.333 -3 -206.333 -53 -291l-89 -60l-142 -14c-24.667 -20 -39.667 -42.667 -45 -68c20 -79.333 10 -121.333 -30 -126l-149 7l-37 37l7 388c-14.667 5.33301 -22 75 -22 209c10 30 22.333 47.667 37 53
h112zM216.001 447.997l15 -60l45 -30c34.667 0 62 22.333 82 67l-15 60l-44 30c-35.333 0 -63 -22.333 -83 -67zM351.001 551.997l37 -37c-10 -74.667 -10 -127 0 -157l-37 -37c-54.667 10 -97 10 -127 0l-37 37c9.33301 34.667 9.33301 87 0 157
c79.333 14.667 134 27 164 37z" />
    <glyph glyph-name="Q" unicode="Q" horiz-adv-x="936" 
d="M197 803l167.998 -6.99805l102 -37c63.333 19.333 100 9.66602 110 -29.001l-15 -73l7 -102l-14 -88c-5.33301 -194.667 -0.666016 -311.334 14.001 -350.001c0 -34 -48.667 -51 -146 -51c-58 0 -87 12 -87 36l14 110c-14.667 28.667 -31.667 48 -51 58
c-170 -24 -264.667 41.667 -284 197c-19.333 199.333 41.334 311.333 182.001 336zM430.998 109.002l64.998 14.999l37 58l-7 504l-22 22h-95l-95 51c-92.667 4.66699 -156 -12.333 -190 -51c-29.333 -38.667 -53.666 -89.667 -72.999 -153
c-10 -97.333 41 -177.666 153 -240.999c58.667 -4.66699 107.334 0 146.001 14l30 -29c-10 -87.333 -10 -133.333 0 -138c14 -24.667 31 -42 51 -52zM247.996 664.001l110 -7.00098l43 -44c-9.33301 -53.333 -9.33301 -106.666 0 -159.999l-36 -37l-117 7l-36 37
c9.33301 38.667 9.33301 94.667 0 168zM298.996 460l44 14l29 52l-14 58l-30 29c-34 10 -63 -9.33301 -87 -58c0 -39.333 19.333 -71 58 -95z" />
    <glyph glyph-name="R" unicode="R" horiz-adv-x="604" 
d="M54 624c8.66699 -250.667 8.66699 -402.669 0 -456.002l20 -34l33 -20c9.33301 -4.66699 27.333 2 54 20l27 47l-14 128l34 33h128l33 -33c-4.66699 -107.333 11 -170 47 -188c67.333 -31.333 112 -6.66602 134 74.001l-27 120l-80 74v27c53.333 36 89 74 107 114
c13.333 36 0 74 -40 114l-80 41l-108 20l-215 -14c-22 -13.333 -39.667 -35.666 -53 -66.999zM141 731.998c18 -9.33301 105.335 -9.33301 262.002 0c116 -14 178.667 -54.333 188 -121c13.333 -85.333 -2.33398 -152.666 -47.001 -201.999l6 -47
c27.333 -48.667 36.333 -93.334 27 -134.001l-7 -27l21 -94l-34 -33l-188 13l-27 34l-6 134c-49.333 71.333 -92 69 -128 -7l7 -127l-34 -34c-44.667 9.33301 -89.334 9.33301 -134.001 0l-34 34l21 288l-7 282l33 34zM255.002 603.998
c49.333 -8.66699 87.333 -8.66602 114 0.000976562l34 -34c8.66699 -80 -2.66602 -122.333 -33.999 -127c-94 -8.66699 -143.333 2.66602 -148 33.999c-8.66699 80 2.66602 122.333 33.999 127zM302.002 476.999c8.66699 -9.33301 28.667 1.66699 60 33
c14 8.66699 0.666992 28.667 -40 60c-8.66699 9.33301 -28.667 0.666016 -60 -26.001c-13.333 -27.333 0 -49.666 40 -66.999z" />
    <glyph glyph-name="S" unicode="S" 
d="M277 635c-9.33301 -24 3 -43.333 37 -58l51 29l-7 36l-37 15zM241 825c102 -10 172.667 -10 212 0c121.333 -29.333 184.333 -78 189 -146v-73l-36 -59v-29c68 -43.333 90 -135.666 66 -276.999c-34.667 -88 -107.667 -136.667 -219 -146l-241 7
c-58.667 14.667 -100 31.667 -124 51c-34.667 24.667 -59 61.334 -73 110.001c-14 63.333 10.333 104.666 73 123.999l-8 36c-62.667 39.333 -79.667 136.666 -51 291.999c29.333 63.333 100 100 212 110zM314 285c58 -5.33301 89.667 -0.666992 95 14v44l-29 15
c-58.667 4.66699 -93 -0.333008 -103 -15c-9.33301 -24 3 -43.333 37 -58zM343 123.999c92.667 14.667 158.334 31.6689 197.001 51.002c39.333 29.333 71 70.666 95 123.999c29.333 131.333 -80 216.666 -328 255.999c-48.667 -19.333 -80.334 -9.66602 -95.001 29.001
c-10 53.333 2 87.333 36 102c39.333 -9.33301 88 -9.33301 146 0l80 -66c54 -24 93 -16.667 117 22c10 14.667 -2 41.667 -36 81c-24.667 28.667 -88 53 -190 73c-82.667 -5.33301 -155.667 -20 -219 -44c-34 -24.667 -63.333 -61.334 -88 -110.001
c-4.66699 -92 12.333 -148 51 -168c44 -38.667 78.333 -58 103 -58l219 -22c38.667 -19.333 50.667 -58.333 36 -117l-36 -36l-168 7l-73 66l-95 7l-22 -22c0 -82.667 90 -141 270 -175z" />
    <glyph glyph-name="T" unicode="T" horiz-adv-x="430" 
d="M160 511c58.667 4.66699 87.998 -0.331055 87.998 -14.998c14.667 0 22 -29 22 -87l22 -22c68 -4.66699 99.667 -19.334 95 -44.001l-8 -95c-4.66699 -19.333 -38.667 -31.333 -102 -36c-19.333 -20 -29 -59 -29 -117c4.66699 -14.667 19.334 -24.334 44.001 -29.001
c58 24 97 16.667 117 -22c4.66699 -68 -2.66602 -114.333 -21.999 -139c-20 -24 -49.333 -38.667 -88 -44c-146 -19.333 -233.667 10 -263 88l8 226l-59 88c-4.66699 58 0.333008 87 15 87l80 59c34 72.667 60.667 106.667 80 102zM210.998 -101.998l88.001 14.001l58 66
c5.33301 14.667 0.666016 24.334 -14.001 29.001h-29c-34 -28.667 -58.333 -38.334 -73 -29.001l-37 37c-4.66699 82.667 0.333008 155.667 15 219c9.33301 19.333 38.333 29 87 29c24.667 9.33301 32 28.666 22 57.999l-102 44c-10 53.333 -22 80 -36 80l-37 -14
c-19.333 -58.667 -53.333 -97.667 -102 -117v-37l44 -58l-30 -190l44 -87z" />
    <glyph glyph-name="U" unicode="U" horiz-adv-x="736" 
d="M58 518l103.002 -14c38.667 19.333 67.667 9.33301 87 -30l-7 -240l22 -37h44l29 51v153c-24.667 78 -17.334 119.667 21.999 125c121.333 9.33301 184.333 -3 189 -37l-14 -219l14 -190l-36 -36h-124l-110 -37c-150.667 -19.333 -233.334 22 -248.001 124
c10 29.333 7.66699 146.333 -7 351zM175.002 51c63.333 -4.66699 119.334 12.332 168.001 50.999c19.333 4.66699 56 -2.66602 110 -21.999c34 5.33301 53.333 39.333 58 102c4.66699 146 -0.333008 236.333 -15 271l-51 36c-43.333 4.66699 -72.333 -22 -87 -80l7 -227
l-29 -36c-82.667 -10 -126.667 2 -132 36v139c20 48.667 20 90 0 124l-58 37l-51 -15l-29 -44c9.33301 -106.667 6.66602 -174.667 -8.00098 -204c10 -82.667 49 -138.667 117 -168z" />
    <glyph glyph-name="V" unicode="V" horiz-adv-x="607" 
d="M66 642l131 -524.999c10 -24.667 29.333 -44.334 58 -59.001c88 -9.33301 136.667 12.667 146 66l146 482c0 29.333 -9.66699 51.333 -29 66c-34 9.33301 -60.667 -12.667 -80 -66l-80 -372l-37 -15l-29 58l-80 373c-54 68 -102.667 65.333 -146 -8zM44 730.001
c68 -10 126.333 -10.001 175 -0.000976562c34 -29.333 48.667 -48.666 44 -57.999l36 -198c10 -34 29.667 -41 59 -21l51 233l36 37l124 -8l37 -36l-88 -365l-87 -263l-44 -36l-183 7c-34 14.667 -51 39 -51 73l-146 577c0 28.667 12.333 48 37 58z" />
    <glyph glyph-name="W" unicode="W" horiz-adv-x="790" 
d="M44 438c58 -10 106.669 -9.99902 146.002 0.000976562l29 -22l15 -51c4.66699 -14.667 19 -19.667 43 -15c34 63.333 63.333 90.333 88 81c34 -10 75.333 -10 124 0l37 -30c9.33301 -48.667 28.666 -68 57.999 -58l44 73c92 19.333 143 9.66602 153 -29.001
c-29.333 -146 -68.333 -280 -117 -402c-29.333 -34 -61 -48.333 -95 -43h-116c-20 4.66699 -42 38.667 -66 102h-37l-36 -80l-44 -22l-131 7c-34 -4.66699 -78 136.333 -132 423c-8.66699 14.667 3.66602 36.667 36.999 66zM190.002 -14.999
c34 -4.66699 58.334 0.333008 73.001 15l36 58c0 48.667 24.333 117 73 205l37 -8c4.66699 -58 21.667 -135.667 51 -233l36 -37c73.333 -4.66699 117.333 12.333 132 51l87 263c5.33301 29.333 0.666016 53.666 -14.001 72.999c-29.333 10 -49 0.333008 -59 -29l-51 -226
l-44 -8c-28.667 141.333 -50.334 224.333 -65.001 249c-39.333 38.667 -68.666 50.667 -87.999 36c-29.333 -9.33301 -51.333 -31.333 -66 -66l-43 -197c-29.333 -9.33301 -49 -9.33301 -59 0l-29 190c0 24.667 -22 51.334 -66 80.001l-51 -14l-14 -29l65 -307z" />
    <glyph glyph-name="X" unicode="X" horiz-adv-x="658" 
d="M109 715h146.001l37 -22l58 -80l30 -7l80 87c121.333 14.667 192 7.66699 212 -21c9.33301 -20 -0.666992 -49.333 -30 -88l-116 -161l-8 -65l146 -219c24.667 -48.667 29.667 -78 15 -88c0 -14.667 -29.333 -22 -88 -22l-160 7c-14.667 0 -41.667 31.667 -81 95
c-14.667 10 -31.667 10 -51 0l-51 -87c-34 -24.667 -68 -32 -102 -22v7l-110 -7l-29 22c-4.66699 29.333 2.66602 58.333 21.999 87l139 234c4.66699 34 -0.333008 58.333 -15 73c-72.667 87.333 -118.667 158 -138 212c-10 43.333 21.333 65 94 65zM102.001 650v-44
c102 -131.333 146 -206.666 132 -225.999c-14.667 -58.667 -61 -146.334 -139 -263.001v-37l36 -29c48.667 14.667 78 31.667 88 51c53.333 122 92.333 175.667 117 161l36 -29c29.333 -73.333 68.333 -127 117 -161c24.667 -10 51.334 -10 80.001 0l30 36l-15 44
c-82.667 112 -129 190 -139 234l44 95l88 124v29l-30 22c-34 0 -60.667 -12.333 -80 -37c-53.333 -87.333 -87.333 -128.666 -102 -123.999c-34 5.33301 -68 51.666 -102 138.999c-48.667 53.333 -102.334 58.333 -161.001 15z" />
    <glyph glyph-name="Y" unicode="Y" horiz-adv-x="584" 
d="M80 460l-0.000976562 -37.002l146 -299l-7 -212c14.667 -34 31.667 -53.333 51 -58c63.333 -14.667 102.333 0 117 44c-10 97.333 -10 177.666 0 240.999l139 284c4.66699 24.667 -2.66602 44.334 -21.999 59.001c-34 9.33301 -61 -3 -81 -37l-73 -175
c-9.33301 -19.333 -26.333 -21.666 -51 -6.99902l-65 168c-20 38.667 -49.333 60.334 -88 65.001c-10 10 -32 -2 -66 -36zM35.999 525.998c73.333 -10 136.668 -9.99902 190.001 0.000976562c34 -10 58.333 -49 73 -117l29 -8l30 15c19.333 68 43.666 107 72.999 117
l146 -15l29 -36l-15 -59l-146 -292l-29 -102l7 -190h-241l-7 44l22 153l-36 110l-154 307c-8.66699 43.333 1 67.666 29 72.999z" />
    <glyph glyph-name="Z" unicode="Z" horiz-adv-x="543" 
d="M95 547c-10 -28.667 -0.333008 -48 29 -58h153c24.667 -10 32 -27 22 -51l-233 -234l7 -36l36 -22h307l51 29c4.66699 34 0 51 -14 51l-146 8c-24.667 9.33301 -32 26.333 -22 51l160 175l22 58l-22 37l-36 22h-270zM80 606l336 -7.00098
c38.667 19.333 68 9.33301 88 -30v-124c-10 -29.333 -41.667 -70.666 -95 -123.999v-36c68 4.66699 107 -12.333 117 -51l-15 -103l-29 -22l-81 15l-350 -7l-36 36v81l14 29l132 131c9.33301 4.66699 9.33301 19.334 0 44.001c-78 0 -119.667 14.667 -125 44
c-4.66699 63.333 10 104.666 44 123.999z" />
    <glyph glyph-name="a" unicode="a" 
d="M246 657l216.999 -7.99902c29.333 -20 49 -52.333 59 -97l157 -552c0 -30 -12.333 -50 -37 -60c-80 10 -149.667 10 -209 0l-30 23l-30 74c-30 35.333 -52.333 50.333 -67 45c-30 -4.66699 -52.333 -39.334 -67 -104.001c-25.333 -30 -57.666 -42.667 -96.999 -38l-8 8
c-59.333 -20 -99 -10 -119 30c-5.33301 34.667 9.66699 96.667 45 186l149 463zM111.999 -21.999c20 -5.33301 42.335 2 67.002 22l37 90c15.333 29.333 67.666 39 156.999 29l37 -22l23 -67c49.333 -50 81.666 -70 96.999 -60c14.667 -14.667 42 0.333008 82 45
c10 4.66699 -39.667 188.667 -149 552c-25.333 24.667 -60.333 42 -105 52c-59.333 10 -99 -9.66699 -119 -59l-164 -515c-10 -10 2.33301 -32.333 37 -67zM321.001 493.001l37 -15l45 -172c10 -44.667 0 -69.667 -30 -75c-69.333 -10 -109 2.66699 -119 38l45 201z" />
    <glyph glyph-name="b" unicode="b" horiz-adv-x="596" 
d="M60 567v-440.001c10 -40 29.667 -65 59 -75c64.667 30 122 27.667 172 -7c119.333 -15.333 201.333 59.334 246 224.001c0 104 -42.333 181 -127 231h-82l-74 -37c-20 0 -32.667 10 -38 30v149l-59 59c-15.333 5.33301 -40.333 -2 -75 -22zM60 738.999l111.999 -15.001
c39.333 20 69 10 89 -30l-7 -104l22 -38c129.333 0 209 -15 239 -45c64.667 -69.333 79.667 -188.666 45 -357.999c-35.333 -89.333 -90 -139 -164 -149l-247 15c-69.333 -20 -111.666 -10 -126.999 30l15 127v388c-14.667 34.667 -19.667 81.667 -15 141zM268.999 395.998
c54.667 14.667 89.333 -0.333008 104 -45c15.333 -109.333 0.333008 -179 -45 -209c-89.333 -10 -136.333 2.33301 -141 37l7 187c14.667 20 39.667 30 75 30zM253.998 186.998c30 -15.333 54.667 -0.666016 74 44.001c10 45.333 0.333008 82.666 -29 111.999h-45l-38 -59
c-10 -10 2.66699 -42.333 38 -97z" />
    <glyph glyph-name="c" unicode="c" horiz-adv-x="574" 
d="M216 649c209.333 25.333 326.332 -31.667 350.999 -171c15.333 -30 0.333008 -60 -45 -90h-119l-90 82c-29.333 0 -51.666 -22.333 -66.999 -67c-10 -10 2.66699 -44.667 38 -104h29l45 37c25.333 14.667 80 19.667 164 15l45 -45
c-10 -119.333 -69.667 -186.666 -179 -201.999c-224 -14.667 -348.333 52.666 -373 201.999c-14 214 53 328.333 201 343zM290.999 142c20 -5.33301 59.667 1.99805 119 21.998l90 82c4.66699 10 -10.333 32.333 -45 67l-127 -67c-59.333 -10 -96.666 2.66699 -111.999 38
c10 74.667 10 139.334 0 194.001c10 24.667 32.667 39.334 68 44.001h74c54.667 -69.333 89.667 -99 105 -89c10 -5.33301 24.667 9.66699 44 45c-9.33301 59.333 -71.333 104 -186 134c-144.667 0 -234.334 -72 -269.001 -216c10 -139.333 89.667 -224 239 -254z" />
    <glyph glyph-name="d" unicode="d" horiz-adv-x="591" 
d="M396 761c39.333 -10 86.334 -10 141.001 0l38 -37l-15 -127v-358c14.667 -34.667 19.667 -82 15 -142l-38 -37l-74 7l-150 -22c-168.667 -30 -268 29.667 -298 179c-14 124 1 216 45 276l44 45c35.333 30 112.666 42.333 231.999 37l30 37l-8 105zM52.001 336
c-10 -129.333 49.666 -214.002 178.999 -254.002c30 0 75 12.333 135 37l119 -22c34.667 4.66699 52 49.334 52 134.001v411l-15 52l-44 30c-40 0 -65 -20 -75 -60l7 -142c-9.33301 -19.333 -21.666 -29 -36.999 -29c-64.667 44.667 -136.667 49.334 -216 14.001
c-40 -24.667 -75 -81.667 -105 -171zM224 409.998c89.333 15.333 139 0.666992 149 -44c10 -119.333 -2.33301 -179 -37 -179c-99.333 -10 -149 2.33301 -149 37c9.33301 50 9.33301 99.667 0 149zM276 223.999c24.667 4.66699 44.667 22 60 52
c10 15.333 -2.33301 45.333 -37 90l-45 -8l-38 -59c10 -40 30 -65 60 -75z" />
    <glyph glyph-name="e" unicode="e" horiz-adv-x="658" 
d="M60 642c14.667 -40 19.668 -87.332 15.001 -141.999h-8c10 -64.667 7.66699 -122 -7 -172c-5.33301 -59.333 -0.333008 -111.333 15 -156l67 -38l52 15l261 -15l105 8l37 45c14.667 49.333 -20 81.666 -104 96.999l-262 -8l-37 37c-4.66699 60 0.333008 90 15 90
c4.66699 20 99.334 30 284.001 30c24.667 20 32 42.333 22 67l-52 37l-157 -7c-24.667 10 -39.667 32.333 -45 67c-4.66699 64.667 22.666 97 81.999 97l179 -7l45 29v45l-45 30h-119l-52 -15l-105 8c-34.667 -15.333 -79.334 -20.333 -134.001 -15
c-24.667 0 -42 -42.333 -52 -127zM157.001 813.001l119.001 -7l75 15c69.333 -10 146.333 -10 231 0l37 -37c10 -74.667 -2.33301 -117 -37 -127c-104.667 20 -191.667 10 -261 -30v-37l45 -30l156 7l38 -37c10 -99.333 -2.66699 -149 -38 -149c-154 14.667 -241 7 -261 -23
c-10 -4.66699 0 -22 30 -52h194c119.333 44.667 171.666 7.33398 156.999 -111.999c0 -64.667 -12.667 -97 -38 -97l-201 15c-119.333 -10 -201.333 -10 -246 0c-84.667 -24.667 -129.667 -17.334 -135 21.999l15 194c-10 84.667 -7.33301 139.667 8 165l-15 59l7 82
c-20 30 -22.333 80 -7 150c0 19.333 42.333 29 127 29z" />
    <glyph glyph-name="f" unicode="f" horiz-adv-x="606" 
d="M75 724l104.001 -8l82 15c80 -10 177 -10 291 0l38 -37c9.33301 -104.667 -3.33398 -157 -38.001 -157l-246 15l-60 -45v-44l53 -38l216 8l37 -37c10 -100 -2.33301 -150 -37 -150l-164 8l-52 -38l-15 -37l7 -142l-37 -37l-142 15c-40 -20 -70 -10 -90 30l15 343l-7 291z
M119.001 37l105 14.998l37 52l-7 142l37 38l164 -8l38 23l22 37l-15 37l-45 30l-216 -7l-38 37c-9.33301 99.333 3.33398 149 38.001 149c79.333 -10 168.666 -10 267.999 0l38 30c20 24.667 0 54.334 -60 89.001h-179c-30 -19.333 -79.667 -21.666 -149 -6.99902
c-40 -4.66699 -72.333 -32 -97 -82l7 -493h-7l7 -44z" />
    <glyph glyph-name="g" unicode="g" horiz-adv-x="561" 
d="M179 731l342.999 -15l38 -37c-10 -154 -10 -328 0 -522c-20 -94.667 -82.333 -149.334 -187 -164.001c-74.667 9.33301 -136.667 9.33301 -186 0c-104.667 14.667 -162 61.667 -172 141v75c34.667 44.667 49.667 72 45 82c-25.333 44.667 -40.333 84.334 -45 119.001v150
c24.667 104 79.334 161 164.001 171zM215.999 418c10 44.667 10 89.334 0 134.001l38 38c104 4.66699 156 -10.333 156 -45c10 -104.667 -2.33301 -159.334 -37 -164.001c-104.667 -10 -157 2.33301 -157 37zM238.999 30c79.333 -10 151.334 9.99902 216.001 59.999
c30 14.667 55 69.334 75 164.001v358l-15 37l-30 23h-30l-45 -30l-141 45c-110 9.33301 -182.333 -53 -217 -187c-4.66699 -89.333 42.666 -164 141.999 -224l142 8l22 -30c10 -84.667 -2.33301 -129.667 -37 -135h-90l-74 75c-35.333 20 -65.333 10 -90 -30
c0 -40 20 -72.333 60 -97zM306 417.999c30 4.66699 52.333 22 67 52l-15 52l-37 23l-52 -15l-15 -30c-5.33301 -34.667 12 -62 52 -82zM254 171.999h45v44h-45v-44z" />
    <glyph glyph-name="h" unicode="h" horiz-adv-x="678" 
d="M254 590l-8 -180l23 -37l37 -22h45l52 37l15 37c-10 100 -10 152.333 0 157c10 20 42.333 30 97 30c99.333 10 149 -2.33301 149 -37c5.33301 -54.667 0.333008 -99.667 -15 -135l8 -470l-38 -37l-89 -8c-60 -10 -97.333 2.66699 -112 38l15 127l-15 44l-45 38l-45 -8
l-37 -45l-7 -164c-15.333 -44.667 -50.333 -62 -105 -52l-112 7l-37 38l7 186l8 179l-15 68l7 216c10 20 42.333 30 97 30c70 10 110 -2.33301 120 -37zM119 -52l97.002 7.00098l30 60l8 157c4.66699 19.333 19.667 31.666 45 36.999c104 10 158.667 -2.33301 164 -37
c-15.333 -114.667 2 -182 52 -202c54.667 -4.66699 92 20.333 112 75v425c-5.33301 50 -20.333 82.333 -45 97l-104 -7l-38 -60l8 -142l-38 -37c-54.667 10 -109.334 10 -164.001 0l-37 37c10 25.333 10 90 0 194l-37 30l-75 -7l-37 -60l15 -187l-8 -328
c15.333 -24.667 32.666 -42 51.999 -52z" />
    <glyph glyph-name="i" unicode="i" horiz-adv-x="285" 
d="M45 627l15 -187h-8l8 -231l-15 -82l22 -45l45 -30h52l52 38l15 37l-15 201h8c-10 154.667 -7.66699 242 7 262c5.33301 44.667 -22 81.667 -82 111h-37l-52 -37zM52 731c50 -10 107.332 -10 171.999 0l37 -37c-10 -50 -10 -119.667 0 -209l-15 -67l15 -164
c-10 -64.667 -10 -129.334 0 -194.001l-37 -38c-99.333 10 -156.666 10 -171.999 0l-37 38c10 44.667 10 116.667 0 216l15 67v90l-15 67c10 74.667 10 139.334 0 194.001z" />
    <glyph glyph-name="j" unicode="j" horiz-adv-x="510" 
d="M299 813l171 -7.00098l37 -37c-9.33301 -45.333 -9.33301 -117.666 0 -216.999l-14 -74l7 -239c-30 -114.667 -89.667 -172 -179 -172h-157c-79.333 10 -129 59.667 -149 149v150l37 37c70 -10 117.333 -10 142 0c14.667 -14.667 32 -19.667 52 -15l30 52l-15 336z
M52 312.999c5.33301 -114 60.001 -183.668 164.001 -209.001c139.333 -4.66699 224 70 254 224c-10 144.667 -7.33301 269 8 373c-10 30 -30 52.667 -60 68c-64.667 14.667 -104.334 -0.333008 -119.001 -45l7 -470l-37 -38l-53 8c-19.333 4.66699 -29 39.334 -29 104.001
c-15.333 25.333 -40.333 40.333 -75 45l-37 -22z" />
    <glyph glyph-name="k" unicode="k" horiz-adv-x="577" 
d="M373 604h149l30 -29l-15 -60c-54.667 -50 -79.334 -80 -74.001 -90l15 -59c74.667 -129.333 109.334 -199 104.001 -209l-30 -45l-127 -22c-49.333 0 -76.666 9.66699 -81.999 29l-59 105l-38 7c-14.667 -4.66699 -24.667 -42 -30 -112l-37 -22c-40 10 -79.667 10 -119 0
l-38 37l8 463c-15.333 24.667 -20.333 82 -15 172c24.667 34.667 52 49.334 82 44.001c89.333 10 136.666 -2.33301 141.999 -37c-15.333 -64.667 -8 -139.334 22 -224.001h45l75 52h-8zM112 134c40 0 62.334 9.99805 67.001 29.998c0 80 12.333 129.667 37 149l45 30
l60 -37c40 -109.333 72.333 -161.666 97 -156.999c4.66699 -14.667 32 -7 82 23v44l-104 187v52l44 60l-7 37c-24.667 20 -79.334 -19.667 -164.001 -119l-45 -8l-15 23l-8 112l8 149l-45 60c-64.667 10 -102 -10 -112 -60l8 -105l-8 -403c10 -29.333 30 -51.666 60 -66.999
z" />
    <glyph glyph-name="l" unicode="l" horiz-adv-x="490" 
d="M104 731c104.667 10 157 -2.33594 157 -37.0029l-7 -410l22 -45l45 -30l172 7l37 -37c14.667 -79.333 -0.333008 -136.666 -45 -171.999h-112l-45 15c-164 -10 -258.333 -10 -283 0l-38 38c10 44.667 10 109.334 0 194.001c20 54.667 22.667 199 8 433
c20 34.667 49.667 49.334 89 44.001zM187 44.9971l261 7l37 38v52l-52 45l-172 -8l-37 37l7 411l-15 37l-29 23l-105 -8l-37 -60c10 -293.333 7.33301 -457.333 -8 -492l38 -60z" />
    <glyph glyph-name="m" unicode="m" horiz-adv-x="853" 
d="M291 642c94.667 10 159.333 -0.00195312 194 -30.002l134 30c80 10 147.333 -2.66699 202 -38c24.667 -19.333 39.667 -49 45 -89c-10 -139.333 -10 -258.666 0 -357.999l-38 -38c-69.333 10 -116.333 10 -141 0l-38 38l8 127c-15.333 29.333 -20.333 69 -15 119l-23 37
h-44l-30 -52l7 -224l-37 -37l-149 7l-38 38l8 201l-15 37l-30 23c-24.667 0 -42 -10 -52 -30l-15 -45c10 -119.333 10 -189 0 -209s-40 -30 -90 -30c-74.667 -10 -117 2.66699 -127 38l15 171v142c-24 74.667 -16.333 119.334 23 134.001h142zM417.999 171.998
l67.002 7.00098l37 60l-7 216l30 38c109.333 14.667 156.666 -20.333 141.999 -105l-8 -164l22 -45l45 -30c10 -4.66699 30 3 60 23l30 52c4.66699 154 -3 248.333 -23 283c-24.667 50 -69.334 82.333 -134.001 97c-50 5.33301 -104.667 -19.334 -164 -74.001h-37l-97 67
c-60 0 -102.333 -12.333 -127 -37c-44.667 -30 -89.667 -27.667 -135 7c-29.333 0 -49 -10 -59 -30l-15 -59c-15.333 -179.333 2 -284 52 -314l67 8l37 59l-7 202l45 45c74.667 10 117 -2.66699 127 -38c-25.333 -168.667 -8 -258 52 -268z" />
    <glyph glyph-name="n" unicode="n" horiz-adv-x="544" 
d="M321 455c144 10 215.999 -22.332 215.999 -96.999v-179c-20 -20 -22.333 -89.667 -7 -209l-37 -37l-135 7l-37 38c14.667 144 7.33398 231 -21.999 261h-45l-23 -45c10 -84.667 10 -149.334 0 -194.001l-44 -45c-104.667 -10 -157 2.66699 -157 38
c10 134 10 268.333 0 403l37 37l172 -8l89 30h-7zM409.999 -21.999c25.333 -10 55.333 9.66602 90 58.999l-7 299l-38 52l-37 22c-60 10 -124.667 -9.66699 -194 -59c-20 -10 -50 0 -90 30c-20 14.667 -44.667 -3 -74 -53v-268c10 -30 29.667 -52.333 59 -67
c20 0 42.667 12.333 68 37l22 112l-8 127l30 37c84.667 4.66699 127 -12.666 127 -51.999l-7 -209c10 -30 29.667 -52.333 59 -67z" />
    <glyph glyph-name="o" unicode="o" horiz-adv-x="688" 
d="M284 746c263.333 25.333 407.334 -61.667 432.001 -261c20 -273.333 -62 -435 -246 -485c-268.667 -24.667 -418 72.333 -448 291c10 70 10 139.667 0 209c25.333 149.333 112.666 231.333 261.999 246zM358.001 37c164 5.33301 270.999 112.332 320.999 320.999
c0 194 -89.667 311 -269 351c-124 -5.33301 -211 -32.666 -261 -81.999c-39.333 -34.667 -71.666 -111.667 -96.999 -231l45 -180c54.667 -94 141.667 -153.667 261 -179zM276 566.999l187 -7l37 -38l-15 -223c20 -74.667 7.66699 -119.667 -37 -135
c-99.333 -4.66699 -159 0.333008 -179 15c-20 10 -30 40 -30 90c10 109.333 10 196.333 0 261zM336 208.999c69.333 -20 111.667 12.333 127 97l-8 179l-45 37c-64.667 20 -111.667 0.333008 -141 -59c-5.33301 -35.333 2 -110 22 -224z" />
    <glyph glyph-name="p" unicode="p" horiz-adv-x="559" 
d="M60 597c10 -54.667 10.001 -219.002 0.000976562 -493.002c10 -29.333 29.667 -51.666 59 -66.999c30 -20 65 0 105 60c-20 89.333 -10 139 30 149c144 -39.333 238.333 30.334 283 209.001c-4.66699 124.667 -69.334 202 -194.001 232l-82 -15l-82 -53l-89 15z
M261.001 723.998c174 24.667 278.667 -32.667 314 -172c14.667 -109.333 -3 -206.333 -53 -291l-89 -60l-142 -14c-24.667 -20 -39.667 -42.667 -45 -68c20 -79.333 10 -121.333 -30 -126l-149 7l-37 37l7 388c-14.667 5.33301 -22 75 -22 209c10 30 22.333 47.667 37 53
h112zM216.001 447.997l15 -60l45 -30c34.667 0 62 22.333 82 67l-15 60l-44 30c-35.333 0 -63 -22.333 -83 -67zM224.001 551.997c54.667 -10 97.001 -10.001 127.001 -0.000976562l37 -37c-10 -74.667 -10 -127 0 -157l-37 -37c-54.667 10 -97 10 -127 0l-37 37
c9.33301 34.667 21.666 99.334 36.999 194.001z" />
    <glyph glyph-name="q" unicode="q" horiz-adv-x="600" 
d="M197 803l167.998 -6.99805l102 -37c63.333 19.333 100 9.66602 110 -29.001l-15 -73l7 -102l-14 -88c-5.33301 -194.667 -0.666016 -311.334 14.001 -350.001c0 -34 -48.667 -51 -146 -51c-58 0 -87 12 -87 36l14 110c-14.667 28.667 -31.667 48 -51 58
c-170 -24 -264.667 41.667 -284 197c-19.333 199.333 41.334 311.333 182.001 336zM430.998 109.002l64.998 14.999l37 58l-7 504l-22 22h-95l-95 51c-92.667 4.66699 -156 -12.333 -190 -51c-29.333 -38.667 -53.666 -89.667 -72.999 -153
c-10 -97.333 41 -177.666 153 -240.999c58.667 -4.66699 107.334 0 146.001 14l30 -29c-10 -87.333 -10 -133.333 0 -138c14 -24.667 31 -42 51 -52zM247.996 664.001l110 -7.00098l43 -44c-9.33301 -53.333 -9.33301 -106.666 0 -159.999l-36 -37l-117 7l-36 37
c9.33301 38.667 9.33301 94.667 0 168zM298.996 460l44 14l29 52l-14 58l-30 29c-34 10 -63 -9.33301 -87 -58c0 -39.333 19.333 -71 58 -95z" />
    <glyph glyph-name="r" unicode="r" horiz-adv-x="604" 
d="M54 624c8.66699 -250.667 8.66699 -402.669 0 -456.002l20 -34l33 -20c9.33301 -4.66699 27.333 2 54 20l27 47l-14 128l34 33h128l33 -33c-4.66699 -107.333 11 -170 47 -188c67.333 -31.333 112 -6.66602 134 74.001l-27 120l-80 74v27c53.333 36 89 74 107 114
c13.333 36 0 74 -40 114l-80 41l-108 20l-215 -14c-22 -13.333 -39.667 -35.666 -53 -66.999zM141 731.998c18 -9.33301 105.335 -9.33301 262.002 0c116 -14 178.667 -54.333 188 -121c13.333 -85.333 -2.33398 -152.666 -47.001 -201.999l6 -47
c27.333 -48.667 36.333 -93.334 27 -134.001l-7 -27l21 -94l-34 -33l-188 13l-27 34l-6 134c-49.333 71.333 -92 69 -128 -7l7 -127l-34 -34c-44.667 9.33301 -89.334 9.33301 -134.001 0l-34 34l21 288l-7 282l33 34zM255.002 603.998
c49.333 -8.66699 87.333 -8.66602 114 0.000976562l34 -34c8.66699 -80 -2.66602 -122.333 -33.999 -127c-94 -8.66699 -143.333 2.66602 -148 33.999c-8.66699 80 2.66602 122.333 33.999 127zM302.002 476.999c8.66699 -9.33301 28.667 1.66699 60 33
c14 8.66699 0.666992 28.667 -40 60c-8.66699 9.33301 -28.667 0.666016 -60 -26.001c-13.333 -27.333 0 -49.666 40 -66.999z" />
    <glyph glyph-name="s" unicode="s" 
d="M277 635c-9.33301 -24 3 -43.333 37 -58l51 29l-7 36l-37 15zM241 825c102 -10 172.667 -10 212 0c121.333 -29.333 184.333 -78 189 -146v-73l-36 -59v-29c68 -43.333 90 -135.666 66 -276.999c-34.667 -88 -107.667 -136.667 -219 -146l-241 7
c-58.667 14.667 -100 31.667 -124 51c-34.667 24.667 -59 61.334 -73 110.001c-14 63.333 10.333 104.666 73 123.999l-8 36c-62.667 39.333 -79.667 136.666 -51 291.999c29.333 63.333 100 100 212 110zM314 285c58 -5.33301 89.667 -0.666992 95 14v44l-29 15
c-58.667 4.66699 -93 -0.333008 -103 -15c-9.33301 -24 3 -43.333 37 -58zM343 123.999c92.667 14.667 158.334 31.6689 197.001 51.002c39.333 29.333 71 70.666 95 123.999c29.333 131.333 -80 216.666 -328 255.999c-48.667 -19.333 -80.334 -9.66602 -95.001 29.001
c-10 53.333 2 87.333 36 102c39.333 -9.33301 88 -9.33301 146 0l80 -66c54 -24 93 -16.667 117 22c10 14.667 -2 41.667 -36 81c-24.667 28.667 -88 53 -190 73c-82.667 -5.33301 -155.667 -20 -219 -44c-34 -24.667 -63.333 -61.334 -88 -110.001
c-4.66699 -92 12.333 -148 51 -168c44 -38.667 78.333 -58 103 -58l219 -22c38.667 -19.333 50.667 -58.333 36 -117l-36 -36l-168 7l-73 66l-95 7l-22 -22c0 -82.667 90 -141 270 -175z" />
    <glyph glyph-name="t" unicode="t" horiz-adv-x="430" 
d="M160 511c58.667 4.66699 87.998 -0.331055 87.998 -14.998c14.667 0 22 -29 22 -87l22 -22c68 -4.66699 99.667 -19.334 95 -44.001l-8 -95c-4.66699 -19.333 -38.667 -31.333 -102 -36c-19.333 -20 -29 -59 -29 -117c4.66699 -14.667 19.334 -24.334 44.001 -29.001
c58 24 97 16.667 117 -22c4.66699 -68 -2.66602 -114.333 -21.999 -139c-20 -24 -49.333 -38.667 -88 -44c-146 -19.333 -233.667 10 -263 88l8 226l-59 88c-4.66699 58 0.333008 87 15 87l80 59c34 72.667 60.667 106.667 80 102zM210.998 -101.998l88.001 14.001l58 66
c5.33301 14.667 0.666016 24.334 -14.001 29.001h-29c-34 -28.667 -58.333 -38.334 -73 -29.001l-37 37c-4.66699 82.667 0.333008 155.667 15 219c9.33301 19.333 38.333 29 87 29c24.667 9.33301 32 28.666 22 57.999l-102 44c-10 53.333 -22 80 -36 80l-37 -14
c-19.333 -58.667 -53.333 -97.667 -102 -117v-37l44 -58l-30 -190l44 -87z" />
    <glyph glyph-name="u" unicode="u" horiz-adv-x="532" 
d="M58 518l103.002 -14c38.667 19.333 67.667 9.33301 87 -30l-7 -240l22 -37h44l29 51v153c-24.667 78 -17.334 119.667 21.999 125c121.333 9.33301 184.333 -3 189 -37l-14 -219l14 -190l-36 -36h-124l-110 -37c-150.667 -19.333 -233.334 22 -248.001 124
c10 29.333 7.66699 146.333 -7 351zM175.002 51c63.333 -4.66699 119.334 12.332 168.001 50.999c19.333 4.66699 56 -2.66602 110 -21.999c34 5.33301 53.333 39.333 58 102c4.66699 146 -0.333008 236.333 -15 271l-51 36c-43.333 4.66699 -72.333 -22 -87 -80l7 -227
l-29 -36c-82.667 -10 -126.667 2 -132 36v139c20 48.667 20 90 0 124l-58 37l-51 -15l-29 -44c9.33301 -106.667 6.66602 -174.667 -8.00098 -204c10 -82.667 49 -138.667 117 -168z" />
    <glyph glyph-name="v" unicode="v" horiz-adv-x="607" 
d="M66 642l131 -524.999c10 -24.667 29.333 -44.334 58 -59.001c88 -9.33301 136.667 12.667 146 66l146 482c0 29.333 -9.66699 51.333 -29 66c-34 9.33301 -60.667 -12.667 -80 -66l-80 -372l-37 -15l-29 58l-80 373c-54 68 -102.667 65.333 -146 -8zM44 730.001
c68 -10 126.333 -10.001 175 -0.000976562c34 -29.333 48.667 -48.666 44 -57.999l36 -198c10 -34 29.667 -41 59 -21l51 233l36 37l124 -8l37 -36l-88 -365l-87 -263l-44 -36l-183 7c-34 14.667 -51 39 -51 73l-146 577c0 28.667 12.333 48 37 58z" />
    <glyph glyph-name="w" unicode="w" horiz-adv-x="790" 
d="M44 438c58 -10 106.669 -9.99902 146.002 0.000976562l29 -22l15 -51c4.66699 -14.667 19 -19.667 43 -15c34 63.333 63.333 90.333 88 81c34 -10 75.333 -10 124 0l37 -30c9.33301 -48.667 28.666 -68 57.999 -58l44 73c92 19.333 143 9.66602 153 -29.001
c-29.333 -146 -68.333 -280 -117 -402c-29.333 -34 -61 -48.333 -95 -43h-116c-20 4.66699 -42 38.667 -66 102h-37l-36 -80l-44 -22l-131 7c-34 -4.66699 -78 136.333 -132 423c-8.66699 14.667 3.66602 36.667 36.999 66zM190.002 -14.999
c34 -4.66699 58.334 0.333008 73.001 15l36 58c0 48.667 24.333 117 73 205l37 -8c4.66699 -58 21.667 -135.667 51 -233l36 -37c73.333 -4.66699 117.333 12.333 132 51l87 263c5.33301 29.333 0.666016 53.666 -14.001 72.999c-29.333 10 -49 0.333008 -59 -29l-51 -226
l-44 -8c-28.667 141.333 -50.334 224.333 -65.001 249c-39.333 38.667 -68.666 50.667 -87.999 36c-29.333 -9.33301 -51.333 -31.333 -66 -66l-43 -197c-29.333 -9.33301 -49 -9.33301 -59 0l-29 190c0 24.667 -22 51.334 -66 80.001l-51 -14l-14 -29l65 -307z" />
    <glyph glyph-name="x" unicode="x" horiz-adv-x="658" 
d="M109 715h146.001l37 -22l58 -80l30 -7l80 87c121.333 14.667 192 7.66699 212 -21c9.33301 -20 -0.666992 -49.333 -30 -88l-116 -161l-8 -65l146 -219c24.667 -48.667 29.667 -78 15 -88c0 -14.667 -29.333 -22 -88 -22l-160 7c-14.667 0 -41.667 31.667 -81 95
c-14.667 10 -31.667 10 -51 0l-51 -87c-34 -24.667 -68 -32 -102 -22v7l-110 -7l-29 22c-4.66699 29.333 2.66602 58.333 21.999 87l139 234c4.66699 34 -0.333008 58.333 -15 73c-72.667 87.333 -118.667 158 -138 212c-10 43.333 21.333 65 94 65zM102.001 650v-44
c102 -131.333 146 -206.666 132 -225.999c-14.667 -58.667 -61 -146.334 -139 -263.001v-37l36 -29c48.667 14.667 78 31.667 88 51c53.333 122 92.333 175.667 117 161l36 -29c29.333 -73.333 68.333 -127 117 -161c24.667 -10 51.334 -10 80.001 0l30 36l-15 44
c-82.667 112 -129 190 -139 234l44 95l88 124v29l-30 22c-34 0 -60.667 -12.333 -80 -37c-53.333 -87.333 -87.333 -128.666 -102 -123.999c-34 5.33301 -68 51.666 -102 138.999c-48.667 53.333 -102.334 58.333 -161.001 15z" />
    <glyph glyph-name="y" unicode="y" horiz-adv-x="584" 
d="M80 460l-0.000976562 -37.002l146 -299l-7 -212c14.667 -34 31.667 -53.333 51 -58c63.333 -14.667 102.333 0 117 44c-10 97.333 -10 177.666 0 240.999l139 284c4.66699 24.667 -2.66602 44.334 -21.999 59.001c-34 9.33301 -61 -3 -81 -37l-73 -175
c-9.33301 -19.333 -26.333 -21.666 -51 -6.99902l-65 168c-20 38.667 -49.333 60.334 -88 65.001c-10 10 -32 -2 -66 -36zM35.999 525.998c73.333 -10 136.668 -9.99902 190.001 0.000976562c34 -10 58.333 -49 73 -117l29 -8l30 15c19.333 68 43.666 107 72.999 117
l146 -15l29 -36l-15 -59l-146 -292l-29 -102l7 -190h-241l-7 44l22 153l-36 110l-154 307c-8.66699 43.333 1 67.666 29 72.999z" />
    <glyph glyph-name="z" unicode="z" horiz-adv-x="543" 
d="M95 547c-10 -28.667 -0.333008 -48 29 -58h153c24.667 -10 32 -27 22 -51l-233 -234l7 -36l36 -22h307l51 29c4.66699 34 0 51 -14 51l-146 8c-24.667 9.33301 -32 26.333 -22 51l160 175l22 58l-22 37l-36 22h-270zM80 606l336 -7.00098
c38.667 19.333 68 9.33301 88 -30v-124c-10 -29.333 -41.667 -70.666 -95 -123.999v-36c68 4.66699 107 -12.333 117 -51l-15 -103l-29 -22l-81 15l-350 -7l-36 36v81l14 29l132 131c9.33301 4.66699 9.33301 19.334 0 44.001c-78 0 -119.667 14.667 -125 44
c-4.66699 63.333 10 104.666 44 123.999z" />
    <glyph glyph-name="sterling" unicode="&#xa3;" horiz-adv-x="583" 
d="M235 631c170 22 266 -20.666 288 -127.999l-6 -94c-9.33301 -22 -36.333 -28.667 -81 -20l-33 -40l6 -107l-33 -34l-74 -7c-13.333 -4 -17.666 -19.667 -12.999 -47l87 -13l147 20l34 -33l-7 -121l-33 -34l-269 14l-147 -7l-34 33l20 148l-6 20
c-49.333 40.667 -72 81 -68 121l54 67l14 27c-4.66699 147.333 46.666 225.666 153.999 234.999zM168 7.00098c170 8.66699 270.669 8.66895 302.002 0.00195312c22 13.333 37.667 29 47 47c4 35.333 -27.333 57.666 -94 66.999l-74 -14
c-80.667 -8.66699 -123.334 2.66602 -128.001 33.999c-4 22 3 51 21 87l20 14c66.667 -9.33301 100 8.33398 100 53.001c-4 18 -37.333 29.333 -100 34c-22.667 4.66699 -29.334 54 -20.001 148l33 40h61l20 -14c22 -53.333 46.667 -80 74 -80l40 13l13 27
c-13.333 76 -62.333 120.667 -147 134c-76.667 0 -135 -20 -175 -60c-22 -18 -37.667 -83 -47 -195l-40 -53c-4.66699 -4.66699 11 -29.334 47 -74.001c8.66699 -49.333 8.66699 -105.333 0 -168zM289.002 383.003c22 -4.66699 37.667 -0.333008 47 13
c4 22.667 -0.666992 40.667 -14 54c-22 4 -37.667 -2.66699 -47 -20z" />
    <glyph glyph-name=".null" horiz-adv-x="0" 
 />
    <glyph glyph-name="nonmarkingreturn" horiz-adv-x="270" 
 />
    </font>
</defs>
</svg>
